<svg width="888" height="720" xmlns="http://www.w3.org/2000/svg" xmlns:xlink="http://www.w3.org/1999/xlink" overflow="hidden"><defs><clipPath id="clip0"><rect x="197" y="-1" width="888" height="720"></rect></clipPath></defs><g clip-path="url(#clip0)" transform="translate(-197 1)"><path d="M656 651.047 658.271 697 803 691.006 801.142 647Z" fill="#221613" fill-rule="evenodd"></path><path d="M727 540.71C742.672 540.71 749.942 551.106 749.942 563.449 749.942 575.843 742.002 586.188 727 586.188 711.895 586.188 704.058 575.791 704.058 563.449 704.058 551.106 711.534 540.71 727 540.71M727 631C771.44 631 795 600.22 795 563.5 795 526.78 773.553 496 727 496 681.168 496 659 526.78 659 563.5 659 600.22 682.148 631 727 631" fill="#221613" fill-rule="evenodd"></path><path d="M492.065 639 444 639 444 715 445.695 715 634 715 634 672.442 492.065 673.569Z" fill="#221613" fill-rule="evenodd"></path><path d="M476.082 584.934 476.082 543.737 514.177 543.737 514.177 580.824C503.204 583.444 489.281 584.574 476.082 584.934M514.177 624.589 559 624.589 559 501 431 501 431 625C431 625 474.478 624.486 514.177 618.425L514.177 624.589Z" fill="#221613" fill-rule="evenodd"></path><path d="M580 492 628 492 628 655 580 655Z" fill="#221613" fill-rule="evenodd"></path><path d="M810 492 858 492 858 715 810 715Z" fill="#221613" fill-rule="evenodd"></path><path d="M1028 539 1028 504.822 981.618 504.822 981.618 489 933.382 489 933.382 504.822 887 504.822 887 539C887 539 926.218 536.622 955.851 536.622 985.535 536.622 1028 539 1028 539" fill="#221613" fill-rule="evenodd"></path><path d="M1035.85 679.51 948.148 679.51 948.148 669.888 1035.85 669.888 1035.85 679.51ZM900 635 900 718 948.148 718 948.148 714.758 1035.85 714.758 1035.85 718 1084 718 1084 635 900 635Z" fill="#221613" fill-rule="evenodd"></path><path d="M956.959 571.523C969.79 571.523 978.499 576.318 978.499 583 978.499 589.682 969.79 594.528 956.959 594.528 944.128 594.528 935.419 589.733 935.419 583 935.419 576.318 944.128 571.523 956.959 571.523M957.474 626C1002.61 626 1024 606.413 1024 583 1024 559.587 1004.78 540 957.474 540 910.891 540 891 559.587 891 583 891 606.413 911.921 626 957.474 626" fill="#221613" fill-rule="evenodd"></path><path d="M1036 492 1084 492 1084 628 1036 628Z" fill="#221613" fill-rule="evenodd"></path><path d="M198 623.428 277.265 623.428 277.265 638.758 215.165 638.758 215.165 681.571 341.467 679.212 341.467 715 389.425 715 389.425 638.758 325.224 638.758 325.224 623.428 407 623.428 407 582 198 582Z" fill="#221613" fill-rule="evenodd"></path><path d="M336.743 575 382.93 574.795C393.434 533.554 394 498 394 498L216 498 216 540.419 345.136 538.985C343.489 551.639 340.914 564.907 336.743 575" fill="#221613" fill-rule="evenodd"></path><path d="M584.88 0 461 123.983 461 372 709.172 372 833 248.017 833 0Z" fill="#E61E2B" fill-rule="evenodd"></path></g></svg>