<?xml version="1.0" encoding="UTF-8" standalone="no"?>
<!DOCTYPE svg PUBLIC "-//W3C//DTD SVG 1.1//EN" "http://www.w3.org/Graphics/SVG/1.1/DTD/svg11.dtd">
<svg width="100%" height="100%" viewBox="0 0 714 722" version="1.1" xmlns="http://www.w3.org/2000/svg" xmlns:xlink="http://www.w3.org/1999/xlink" xml:space="preserve" xmlns:serif="http://www.serif.com/" style="fill-rule:evenodd;clip-rule:evenodd;stroke-linejoin:round;stroke-miterlimit:2;">
    <g transform="matrix(1.47419,0,0,1.55453,-586.484,15.1173)">
        <path d="M867.453,293.799C841.688,249.245 787.032,231.874 740.923,251.709C739.005,252.544 727.999,257.095 724.622,258.014C695.313,266.114 678.095,254.089 672.884,246.155C672.842,246.113 672.842,246.113 672.801,246.071C672.05,244.902 671.133,243.19 670.924,242.815C666.672,234.296 664.879,213.376 686.6,192.08C689.101,189.616 698.524,182.393 700.191,181.14C740.422,151.117 752.804,95.121 727.207,50.442C708.612,18.039 674.802,0 639.99,0C605.179,0 571.326,18.039 552.774,50.442C527.176,95.121 539.558,151.117 579.789,181.14C581.457,182.393 590.879,189.616 593.38,192.08C615.059,213.418 613.266,234.338 609.056,242.815C608.848,243.19 607.93,244.902 607.18,246.071C607.138,246.113 607.138,246.113 607.097,246.155C601.885,254.089 584.667,266.157 555.359,258.014C551.982,257.095 540.976,252.544 539.058,251.709C492.948,231.874 438.292,249.245 412.528,293.799C393.851,326.161 395.143,364.66 412.528,394.725C429.996,424.915 462.639,445.125 499.952,445C551.356,444.791 593.63,405.957 599.425,356.058C599.676,354.012 601.218,342.153 602.094,338.771C609.64,309.291 628.651,300.313 638.156,299.729C638.406,299.729 639.073,299.645 639.782,299.603L640.365,299.603C641.074,299.645 641.741,299.687 641.991,299.729C651.455,300.313 670.466,309.249 678.054,338.771C678.929,342.153 680.471,354.012 680.722,356.058C686.517,405.957 728.749,444.791 780.195,445C817.508,445.125 850.151,424.915 867.62,394.725C884.838,364.66 886.13,326.161 867.453,293.799" style="fill:rgb(234,85,4);"/>
    </g>
</svg>
