<svg width="714" height="722" xmlns="http://www.w3.org/2000/svg" xmlns:xlink="http://www.w3.org/1999/xlink" overflow="hidden"><defs><clipPath id="clip0"><rect x="283" y="-1" width="714" height="722"></rect></clipPath></defs><g clip-path="url(#clip0)" transform="translate(-283 1)"><path d="M290.415 631.174 352.4 631.88 352.4 649.576 300.537 650.116C296.997 650.158 294.123 653.024 294.123 656.555L294.123 668.768C294.123 672.341 297.038 675.207 300.579 675.207L410.635 675.207 410.635 709.561C410.635 713.134 413.51 716 417.092 716L440.336 716 440.336 656.514C440.336 652.983 437.462 650.116 433.921 650.075L382.642 649.535 382.642 631.839 451 631.049 451 612.439C451 608.866 448.084 606 444.544 606L290.457 606C286.874 606 284 608.908 284 612.439L284 624.694C284 628.266 286.874 631.132 290.415 631.174" fill="#041E42" fill-rule="evenodd"></path><path d="M304.464 565.353 407.849 565.353 407.849 588.537C407.849 592.123 410.768 595 414.313 595L437 595 437 546.463C437 542.877 434.081 540 430.536 540L304.464 540C300.877 540 298 542.919 298 546.463L298 558.889C298 562.476 300.877 565.353 304.464 565.353" fill="#041E42" fill-rule="evenodd"></path><path d="M479.431 716 622.528 716C626.119 716 629 713.087 629 709.55L629 697.149C629 693.57 626.119 690.699 622.528 690.699L504.192 690.699 504.192 656.7C504.192 653.204 501.394 650.333 497.887 650.249L488.2 650 473 650.416 473 709.592C472.959 713.087 475.882 716 479.431 716" fill="#041E42" fill-rule="evenodd"></path><path d="M478.456 634 572 634 572 547.024C572 543.449 569.168 540.547 565.628 540.505L521.063 540 520.897 540 478.373 540.505C474.833 540.547 472 543.449 472 547.024L472 627.481C471.959 631.099 474.874 634 478.456 634M500.78 609.27C500.405 602.12 500.405 572.385 500.78 565.235 513.025 565.025 534.266 564.857 544.387 565.235 544.762 572.385 544.762 602.331 544.387 609.27 539.722 609.522 532.475 609.649 524.978 609.649 515.899 609.649 506.444 609.48 500.78 609.27" fill="#041E42" fill-rule="evenodd"></path><path d="M606.399 634 629 634 629 546.47C629 542.88 626.092 540 622.561 540L606.441 540C602.868 540 600.002 542.922 600.002 546.47L600.002 627.488C599.918 631.12 602.827 634 606.399 634" fill="#041E42" fill-rule="evenodd"></path><path d="M906.5 695.981C865.625 695.981 860.583 690.583 860.583 680.875 860.583 670.832 865.458 665.977 906.5 665.977 947.375 665.977 952.417 671.418 952.417 680.875 952.458 691.169 947.583 695.981 906.5 695.981M906.5 642C848.917 642 831 652.462 831 680.916 831 706.861 846 720 906.5 720 964.084 720 982 709.539 982 680.916 982 655.139 967.042 642 906.5 642" fill="#041E42" fill-rule="evenodd"></path><path d="M828 547.778 828 620.594C828 624.149 830.862 627 834.43 627L932 627 932 609.23C932 605.676 929.138 602.824 925.57 602.824L856.707 602.824 856.707 565.672 924.326 565.672 924.326 546.786C924.326 543.851 921.961 541.455 919.016 541.455L871.89 541 834.389 541.413C830.862 541.413 828 544.265 828 547.778" fill="#041E42" fill-rule="evenodd"></path><path d="M955.558 632 978.553 632 978.932 600.984 996 600.356 996 571.603 978.932 571.184 978.596 546.413C978.553 542.85 975.653 540 972.08 540L955.516 540C951.901 540 949 542.934 949 546.497L949 625.504C949.042 629.066 951.943 632 955.558 632" fill="#041E42" fill-rule="evenodd"></path><path d="M706 624.374C687.791 624.374 680.947 614.115 680.947 595.021 680.947 575.885 687.791 565.836 706 565.836 723.836 565.836 731.053 575.885 731.053 595.021 731.094 614.115 723.836 624.374 706 624.374M706 540C667.633 540 651 559.722 651 595.021 651 630.487 667.633 650 706 650 744.367 650 761 630.487 761 595.021 761.042 559.722 744.409 540 706 540" fill="#041E42" fill-rule="evenodd"></path><path d="M653.476 698 770 698 770 678.521C770 674.903 767.075 672 763.524 672L653.476 672C649.883 672 647 674.945 647 678.521L647 691.479C647 695.055 649.925 698 653.476 698" fill="#041E42" fill-rule="evenodd"></path><path d="M779.041 547.026 779 710.518C779 714.115 781.862 717 785.336 717L807 717 807 547.319C807 543.262 803.812 540 799.847 540L785.868 540C782.107 540.042 779.041 543.179 779.041 547.026" fill="#041E42" fill-rule="evenodd"></path><path d="M867.453 293.799C841.688 249.245 787.032 231.874 740.923 251.709 739.005 252.544 727.999 257.095 724.622 258.014 695.313 266.114 678.095 254.089 672.884 246.155 672.842 246.113 672.842 246.113 672.801 246.071 672.05 244.902 671.133 243.19 670.924 242.815 666.672 234.296 664.879 213.376 686.6 192.08 689.101 189.616 698.524 182.393 700.191 181.14 740.422 151.117 752.804 95.1212 727.207 50.4419 708.612 18.0388 674.802 0 639.99 0 605.179 0 571.326 18.0388 552.774 50.4419 527.176 95.1212 539.558 151.117 579.789 181.14 581.457 182.393 590.879 189.616 593.38 192.08 615.059 213.418 613.266 234.338 609.056 242.815 608.848 243.19 607.93 244.902 607.18 246.071 607.138 246.113 607.138 246.113 607.097 246.155 601.885 254.089 584.667 266.157 555.359 258.014 551.982 257.095 540.976 252.544 539.058 251.709 492.948 231.874 438.292 249.245 412.528 293.799 393.851 326.161 395.143 364.66 412.528 394.725 429.996 424.915 462.639 445.125 499.952 445 551.356 444.791 593.63 405.957 599.425 356.058 599.676 354.012 601.218 342.153 602.094 338.771 609.64 309.291 628.651 300.313 638.156 299.729 638.406 299.729 639.073 299.645 639.782 299.603 639.865 299.603 639.99 299.603 640.074 299.603 640.157 299.603 640.24 299.603 640.365 299.603 641.074 299.645 641.741 299.687 641.991 299.729 651.455 300.313 670.466 309.249 678.054 338.771 678.929 342.153 680.471 354.012 680.722 356.058 686.517 405.957 728.749 444.791 780.195 445 817.508 445.125 850.151 424.915 867.62 394.725 884.838 364.66 886.13 326.161 867.453 293.799" fill="#EA5504" fill-rule="evenodd"></path></g></svg>