<?xml version="1.0" encoding="UTF-8" standalone="no"?>
<!DOCTYPE svg PUBLIC "-//W3C//DTD SVG 1.1//EN" "http://www.w3.org/Graphics/SVG/1.1/DTD/svg11.dtd">
<svg width="100%" height="100%" viewBox="0 0 800 250" version="1.1" xmlns="http://www.w3.org/2000/svg" xmlns:xlink="http://www.w3.org/1999/xlink" xml:space="preserve" xmlns:serif="http://www.serif.com/" style="fill-rule:evenodd;clip-rule:evenodd;stroke-linejoin:round;stroke-miterlimit:2;">
    <g transform="matrix(1,0,0,1,4,0)">
        <g transform="matrix(1,0,0,1,-244,-505)">
            <path d="M290.415,631.174L352.4,631.88L352.4,649.576L300.537,650.116C296.997,650.158 294.123,653.024 294.123,656.555L294.123,668.768C294.123,672.341 297.038,675.207 300.579,675.207L410.635,675.207L410.635,709.561C410.635,713.134 413.51,716 417.092,716L440.336,716L440.336,656.514C440.336,652.983 437.462,650.116 433.921,650.075L382.642,649.535L382.642,631.839L451,631.049L451,612.439C451,608.866 448.084,606 444.544,606L290.457,606C286.874,606 284,608.908 284,612.439L284,624.694C284,628.266 286.874,631.132 290.415,631.174" style="fill:rgb(4,30,66);"/>
        </g>
        <g transform="matrix(1,0,0,1,-244,-505)">
            <path d="M304.464,565.353L407.849,565.353L407.849,588.537C407.849,592.123 410.768,595 414.313,595L437,595L437,546.463C437,542.877 434.081,540 430.536,540L304.464,540C300.877,540 298,542.919 298,546.463L298,558.889C298,562.476 300.877,565.353 304.464,565.353" style="fill:rgb(4,30,66);"/>
        </g>
        <g transform="matrix(1,0,0,1,-244,-505)">
            <path d="M479.431,716L622.528,716C626.119,716 629,713.087 629,709.55L629,697.149C629,693.57 626.119,690.699 622.528,690.699L504.192,690.699L504.192,656.7C504.192,653.204 501.394,650.333 497.887,650.249L488.2,650L473,650.416L473,709.592C472.959,713.087 475.882,716 479.431,716" style="fill:rgb(4,30,66);"/>
        </g>
        <g transform="matrix(1,0,0,1,-244,-505)">
            <path d="M478.456,634L572,634L572,547.024C572,543.449 569.168,540.547 565.628,540.505L521.063,540L520.897,540L478.373,540.505C474.833,540.547 472,543.449 472,547.024L472,627.481C471.959,631.099 474.874,634 478.456,634M500.78,609.27C500.405,602.12 500.405,572.385 500.78,565.235C513.025,565.025 534.266,564.857 544.387,565.235C544.762,572.385 544.762,602.331 544.387,609.27C539.722,609.522 532.475,609.649 524.978,609.649C515.899,609.649 506.444,609.48 500.78,609.27" style="fill:rgb(4,30,66);"/>
        </g>
        <g transform="matrix(1,0,0,1,-244,-505)">
            <path d="M606.399,634L629,634L629,546.47C629,542.88 626.092,540 622.561,540L606.441,540C602.868,540 600.002,542.922 600.002,546.47L600.002,627.488C599.918,631.12 602.827,634 606.399,634" style="fill:rgb(4,30,66);"/>
        </g>
        <g transform="matrix(1,0,0,1,-244,-505)">
            <path d="M906.5,695.981C865.625,695.981 860.583,690.583 860.583,680.875C860.583,670.832 865.458,665.977 906.5,665.977C947.375,665.977 952.417,671.418 952.417,680.875C952.458,691.169 947.583,695.981 906.5,695.981M906.5,642C848.917,642 831,652.462 831,680.916C831,706.861 846,720 906.5,720C964.084,720 982,709.539 982,680.916C982,655.139 967.042,642 906.5,642" style="fill:rgb(4,30,66);"/>
        </g>
        <g transform="matrix(1,0,0,1,-244,-505)">
            <path d="M828,547.778L828,620.594C828,624.149 830.862,627 834.43,627L932,627L932,609.23C932,605.676 929.138,602.824 925.57,602.824L856.707,602.824L856.707,565.672L924.326,565.672L924.326,546.786C924.326,543.851 921.961,541.455 919.016,541.455L871.89,541L834.389,541.413C830.862,541.413 828,544.265 828,547.778" style="fill:rgb(4,30,66);"/>
        </g>
        <g transform="matrix(1,0,0,1,-244,-505)">
            <path d="M955.558,632L978.553,632L978.932,600.984L996,600.356L996,571.603L978.932,571.184L978.596,546.413C978.553,542.85 975.653,540 972.08,540L955.516,540C951.901,540 949,542.934 949,546.497L949,625.504C949.042,629.066 951.943,632 955.558,632" style="fill:rgb(4,30,66);"/>
        </g>
        <g transform="matrix(1,0,0,1,-244,-505)">
            <path d="M706,624.374C687.791,624.374 680.947,614.115 680.947,595.021C680.947,575.885 687.791,565.836 706,565.836C723.836,565.836 731.053,575.885 731.053,595.021C731.094,614.115 723.836,624.374 706,624.374M706,540C667.633,540 651,559.722 651,595.021C651,630.487 667.633,650 706,650C744.367,650 761,630.487 761,595.021C761.042,559.722 744.409,540 706,540" style="fill:rgb(4,30,66);"/>
        </g>
        <g transform="matrix(1,0,0,1,-244,-505)">
            <path d="M653.476,698L770,698L770,678.521C770,674.903 767.075,672 763.524,672L653.476,672C649.883,672 647,674.945 647,678.521L647,691.479C647,695.055 649.925,698 653.476,698" style="fill:rgb(4,30,66);"/>
        </g>
        <g transform="matrix(1,0,0,1,-244,-505)">
            <path d="M779.041,547.026L779,710.518C779,714.115 781.862,717 785.336,717L807,717L807,547.319C807,543.262 803.812,540 799.847,540L785.868,540C782.107,540.042 779.041,543.179 779.041,547.026" style="fill:rgb(4,30,66);"/>
        </g>
    </g>
</svg>
