<?xml version="1.0" encoding="UTF-8" standalone="no"?>
<!DOCTYPE svg PUBLIC "-//W3C//DTD SVG 1.1//EN" "http://www.w3.org/Graphics/SVG/1.1/DTD/svg11.dtd">
<svg width="100%" height="100%" viewBox="0 0 195 222" version="1.1" xmlns="http://www.w3.org/2000/svg" xmlns:xlink="http://www.w3.org/1999/xlink" xml:space="preserve" xmlns:serif="http://www.serif.com/" style="fill-rule:evenodd;clip-rule:evenodd;stroke-linejoin:round;stroke-miterlimit:2;">
    <g transform="matrix(1,0,0,1,-1084.82,-138)">
        <path d="M1146.82,280.798L1146.82,335.547C1175.09,341.407 1189.54,346.935 1217.82,352.798L1217.82,298.048C1189.54,292.19 1175.09,286.659 1146.82,280.798Z" style="fill:rgb(11,104,179);"/>
        <path d="M1217.82,214.799L1217.82,160.041C1189.54,154.184 1175.09,148.657 1146.82,142.798L1146.82,197.551C1175.09,203.411 1189.54,208.938 1217.82,214.799Z" style="fill:rgb(0,166,172);"/>
        <path d="M1084.82,201.862L1084.82,284.798C1105.9,274.985 1121.4,274.98 1146.82,280.237L1146.82,197.301C1121.4,192.043 1105.9,192.049 1084.82,201.862Z" style="fill:rgb(0,160,226);"/>
        <path d="M1084.82,284.868L1084.82,339.798C1105.9,329.978 1121.4,329.972 1146.82,335.234L1146.82,280.303C1121.4,275.042 1105.9,275.047 1084.82,284.868Z" style="fill:rgb(10,82,156);"/>
        <path d="M1146.82,197.233L1146.82,142.304C1121.4,137.04 1105.9,137.05 1084.82,146.865L1084.82,201.798C1105.9,191.977 1121.4,191.971 1146.82,197.233Z" style="fill:rgb(11,123,147);"/>
        <path d="M1217.82,215.219L1217.82,298.286C1243.24,303.531 1258.78,303.551 1279.82,293.863L1279.82,210.798C1258.78,220.482 1243.24,220.46 1217.82,215.219Z" style="fill:rgb(44,65,152);"/>
        <path d="M1217.82,298.227L1217.82,353.282C1243.24,358.531 1258.78,358.555 1279.82,348.85L1279.82,293.797C1258.78,303.499 1243.24,303.48 1217.82,298.227Z" style="fill:rgb(1,55,140);"/>
        <path d="M1279.82,210.854L1279.82,155.797C1258.77,165.498 1243.23,165.473 1217.82,160.224L1217.82,215.282C1243.24,220.531 1258.78,220.553 1279.82,210.854Z" style="fill:rgb(9,64,114);"/>
    </g>
</svg>
