<svg width="1282" height="444" xmlns="http://www.w3.org/2000/svg" xmlns:xlink="http://www.w3.org/1999/xlink" overflow="hidden"><defs><clipPath id="clip0"><rect x="-1" y="138" width="1282" height="444"></rect></clipPath><linearGradient x1="0" y1="480.899" x2="556.817" y2="480.899" gradientUnits="userSpaceOnUse" spreadMethod="reflect" id="fill1"><stop offset="0" stop-color="#8AC452"></stop><stop offset="0.33" stop-color="#00AA7D"></stop><stop offset="0.67" stop-color="#008CCD"></stop><stop offset="1" stop-color="#004EA2"></stop></linearGradient><linearGradient x1="0" y1="480.899" x2="556.817" y2="480.899" gradientUnits="userSpaceOnUse" spreadMethod="reflect" id="fill2"><stop offset="0" stop-color="#8AC452"></stop><stop offset="0.33" stop-color="#00AA7D"></stop><stop offset="0.67" stop-color="#008CCD"></stop><stop offset="1" stop-color="#004EA2"></stop></linearGradient><linearGradient x1="0" y1="480.899" x2="556.817" y2="480.899" gradientUnits="userSpaceOnUse" spreadMethod="reflect" id="fill3"><stop offset="0" stop-color="#8AC452"></stop><stop offset="0.33" stop-color="#00AA7D"></stop><stop offset="0.67" stop-color="#008CCD"></stop><stop offset="1" stop-color="#004EA2"></stop></linearGradient><linearGradient x1="0" y1="480.899" x2="556.817" y2="480.899" gradientUnits="userSpaceOnUse" spreadMethod="reflect" id="fill4"><stop offset="0" stop-color="#8AC452"></stop><stop offset="0.33" stop-color="#00AA7D"></stop><stop offset="0.67" stop-color="#008CCD"></stop><stop offset="1" stop-color="#004EA2"></stop></linearGradient><linearGradient x1="0" y1="480.899" x2="556.817" y2="480.899" gradientUnits="userSpaceOnUse" spreadMethod="reflect" id="fill5"><stop offset="0" stop-color="#8AC452"></stop><stop offset="0.33" stop-color="#00AA7D"></stop><stop offset="0.67" stop-color="#008CCD"></stop><stop offset="1" stop-color="#004EA2"></stop></linearGradient></defs><g clip-path="url(#clip0)" transform="translate(1 -138)"><path d="M686.818 385.798 577.818 385.798 577.818 492.798 686.818 492.798ZM646.86 458.887 618.51 458.887 618.51 419.685 646.86 419.685Z" fill="#004EA2" fill-rule="evenodd"></path><path d="M707 382 750 382 750 529 707 529Z" fill="#004EA2" fill-rule="evenodd"></path><path d="M630.156 509 586 509 586 580 753 580 753 544.95 630.156 544.95 630.156 509Z" fill="#004EA2" fill-rule="evenodd"></path><path d="M1068.15 445.967 1003.59 453.927 1003.59 420.875 1066.31 420.875 1066.31 386 961 386 961 492 1074 481.713 1068.15 445.967Z" fill="#004EA2" fill-rule="evenodd"></path><path d="M1127.93 427.79 1127.93 382 1085 382 1085 492 1127.93 492 1127.93 465.282 1157 465.282 1157 427.79 1127.93 427.79Z" fill="#004EA2" fill-rule="evenodd"></path><path d="M1093.49 499.798 1004.77 499.798C983.555 499.798 966.816 516.685 966.816 539.802 966.816 562.72 983.555 579.798 1004.77 579.798L1093.49 579.798C1115.28 579.798 1131.82 562.72 1131.82 539.802 1131.82 516.685 1115.28 499.798 1093.49 499.798ZM1078.01 547.028 1020.09 547.028C1015.67 547.028 1012.18 544.815 1012.18 538.65 1012.18 531.758 1015.67 530.045 1020.09 530.045L1078.01 530.045C1083.17 530.045 1086.63 531.758 1086.63 538.65 1086.63 544.815 1083.17 547.028 1078.01 547.028Z" fill="#004EA2" fill-rule="evenodd"></path><path d="M767 533.972 834.135 533.972 834.135 581 877.849 581 877.849 533.972 945 533.972 945 498 767 498 767 533.972Z" fill="#004EA2" fill-rule="evenodd"></path><path d="M770 453.622 787.997 492 856.492 466.683 926.099 491.862 943 453.472 878.385 435.629 878.385 422.165 939.072 422.165 939.072 386 773.938 386 773.938 422.165 834.635 422.165 834.635 435.581 770 453.622Z" fill="#004EA2" fill-rule="evenodd"></path><path d="M42.3885 528.404 42.3885 429.454 105.993 429.454 105.993 389 0 389 0 574 117 559.502 109.323 517.649 42.3885 528.404Z" fill="url(#fill1)" fill-rule="evenodd"></path><path d="M128.584 453.093 78 453.093 78 492.431 128.584 492.431 128.584 580 172 580 172 382 128.584 382 128.584 453.093Z" fill="url(#fill2)" fill-rule="evenodd"></path><path d="M360.816 383.798 305.993 383.798 305.993 400.278 250.272 400.278 250.272 383.798 195.816 383.798 195.816 452.798 360.817 452.798ZM305.993 432.876 250.272 432.876 250.272 418.177 305.993 418.177Z" fill="url(#fill3)" fill-rule="evenodd"></path><path d="M190 489.827 258.51 489.827 258.51 502.224 196.773 502.224 196.773 520.474 306.8 520.474 306.8 531.949 196.773 531.949 196.773 580 364.148 580 364.148 561.351 252.585 561.22 252.585 549.656 361.24 549.682 361.24 502.224 299.317 502.224 299.317 489.827 368 489.827 368 464 190 464 190 489.827Z" fill="url(#fill4)" fill-rule="evenodd"></path><path d="M513.395 453.352 488.4 453.352 488.4 435.34C488.4 403.985 465.177 382.664 436.504 382.664 408.033 382.664 384.817 403.985 384.817 435.34L384.817 526.413C384.817 557.771 408.033 579.082 436.504 579.082 465.177 579.082 488.4 557.771 488.4 526.413L488.4 495.577 513.395 495.577 513.395 579.797 556.817 579.797 556.817 381.797 513.396 381.797ZM447.755 534.651C447.948 540.676 443.224 545.717 437.203 545.909 437.185 545.91 437.168 545.91 437.15 545.911 431.205 545.72 426.541 540.742 426.732 534.794 426.733 534.746 426.735 534.699 426.737 534.651L426.737 430.305C426.567 424.313 431.171 419.262 437.15 418.884 443.171 419.234 447.847 424.27 447.755 430.305Z" fill="url(#fill5)" fill-rule="evenodd"></path><path d="M1146.82 280.798 1146.82 335.547C1175.09 341.407 1189.54 346.935 1217.82 352.798L1217.82 298.048C1189.54 292.19 1175.09 286.659 1146.82 280.798Z" fill="#0B68B3" fill-rule="evenodd"></path><path d="M1217.82 214.799 1217.82 160.041C1189.54 154.184 1175.09 148.657 1146.82 142.798L1146.82 197.551C1175.09 203.411 1189.54 208.938 1217.82 214.799Z" fill="#00A6AC" fill-rule="evenodd"></path><path d="M1084.82 201.862 1084.82 284.798C1105.9 274.985 1121.4 274.98 1146.82 280.237L1146.82 197.301C1121.4 192.043 1105.9 192.049 1084.82 201.862Z" fill="#00A0E2" fill-rule="evenodd"></path><path d="M1084.82 284.868 1084.82 339.798C1105.9 329.978 1121.4 329.972 1146.82 335.234L1146.82 280.303C1121.4 275.042 1105.9 275.047 1084.82 284.868Z" fill="#0A529C" fill-rule="evenodd"></path><path d="M1146.82 197.233 1146.82 142.304C1121.4 137.04 1105.9 137.05 1084.82 146.865L1084.82 201.798C1105.9 191.977 1121.4 191.971 1146.82 197.233Z" fill="#0B7B93" fill-rule="evenodd"></path><path d="M1217.82 215.219 1217.82 298.286C1243.24 303.531 1258.78 303.551 1279.82 293.863L1279.82 210.798C1258.78 220.482 1243.24 220.46 1217.82 215.219Z" fill="#2C4198" fill-rule="evenodd"></path><path d="M1217.82 298.227 1217.82 353.282C1243.24 358.531 1258.78 358.555 1279.82 348.85L1279.82 293.797C1258.78 303.499 1243.24 303.48 1217.82 298.227Z" fill="#01378C" fill-rule="evenodd"></path><path d="M1279.82 210.854 1279.82 155.797C1258.77 165.498 1243.23 165.473 1217.82 160.224L1217.82 215.282C1243.24 220.531 1258.78 220.553 1279.82 210.854Z" fill="#094072" fill-rule="evenodd"></path></g></svg>