 
<svg style="fill-rule:evenodd;clip-rule:evenodd;stroke-linecap:round;stroke-linejoin:round" xmlns:xlink="http://www.w3.org/1999/xlink" xmlns="http://www.w3.org/2000/svg" xml:space="preserve" version="1.1" viewBox="0 0 518 324">

<defs></defs>
<g id="Untitled">
<g opacity="1">
<g opacity="1">
<path d="M379.894+182.3C376.222+178.461+376.887+171.618+376.887+167.26L376.862+151.034L441.594+151.034L441.594+122.5L346.717+122.5L346.717+187.6C346.717+187.772+346.273+200.232+354.571+208.9C359.953+214.521+367.83+217.373+377.978+217.373L441.594+217.373L441.594+187.227L392.158+187.227C386.7+187.227+382.812+185.354+379.894+182.3Z" opacity="1" fill="#000000"></path>
<path d="M65.837+150.143L102.759+150.143L102.759+122.498L2.798+122.498L2.798+150.143L37.946+150.143L0+186.997L20.436+207.434L41.015+186.851L52.52+174.395L64.702+186.972L85.123+207.397L105.565+186.964L65.837+150.143Z" opacity="1" fill="#000000"></path>
<path d="M231.87+207.48C256.844+207.481+277.091+187.236+277.092+162.262C277.093+137.288+256.848+117.041+231.874+117.04C206.9+117.039+186.653+137.284+186.652+162.258C186.678+187.221+206.907+207.452+231.87+207.48ZM231.87+143.005C242.504+143.006+251.124+151.626+251.123+162.26C251.122+172.894+242.502+181.514+231.868+181.513C221.234+181.512+212.614+172.892+212.615+162.258C212.624+151.627+221.239+143.011+231.87+143L231.87+143.005Z" opacity="1" fill="#000000"></path>
<path d="M269.209+226.532L268.92+226.509L184.5+226.509L184.5+255.409L267.985+255.781C268.479+255.796+269.043+255.439+269.733+255.439C276.964+255.439+295.287+254.025+309.195+240.916C316.188+234.316+324.525+222.163+324.525+201.704L324.525+122.5L295.625+122.5L295.625+201.71C295.625+209.904+293.618+215.81+289.487+219.775C282.64+226.354+271.187+226.547+269.902+226.547C269.649+226.546+269.416+226.538+269.209+226.532Z" opacity="1" fill="#000000"></path>
<path d="M135.189+122.5L135.189+150.94L107.545+150.94L107.545+179.706L135.189+179.706L135.189+225.9L115.13+225.9C88.0886+225.903+66.1696+247.827+66.172+274.868C66.1744+301.91+88.0973+323.829+115.139+323.828C142.18+323.827+164.101+301.904+164.1+274.863L164.1+122.5L135.189+122.5ZM135.189+257.02L135.189+274.864C135.187+285.942+126.204+294.922+115.126+294.92C104.048+294.918+95.0679+285.936+95.069+274.858C95.0701+263.78+104.052+254.799+115.13+254.8L135.189+254.8L135.189+257.02Z" opacity="1" fill="#000000"></path>
<path d="M518+150.94L490.669+150.94L490.669+122.5L461.769+122.5L461.769+225.9L441.709+225.9C414.667+225.898+392.743+247.82+392.742+274.862C392.741+301.904+414.663+323.827+441.705+323.828C468.747+323.829+490.67+301.906+490.67+274.864L490.67+179.706L518+179.706L518+150.94ZM461.768+257.019L461.768+274.863C461.767+285.943+452.784+294.924+441.704+294.923C430.624+294.922+421.643+285.939+421.644+274.859C421.645+263.779+430.628+254.798+441.708+254.799L461.768+254.799L461.768+257.019Z" opacity="1" fill="#000000"></path>
</g>
<path d="M307.323+107.21L247.246+47.136L267.496+26.88L307.323+66.708L374.026+0L394.28+20.253L307.323+107.21Z" opacity="1" fill="#ffcc00"></path>
</g>
</g>
</svg>
